<?xml version="1.0" standalone="no"?>
<!DOCTYPE svg PUBLIC "-//W3C//DTD SVG 20010904//EN"
 "http://www.w3.org/TR/2001/REC-SVG-20010904/DTD/svg10.dtd">
<svg version="1.0" xmlns="http://www.w3.org/2000/svg"
 width="512.000000pt" height="512.000000pt" viewBox="0 0 512.000000 512.000000"
 preserveAspectRatio="xMidYMid meet">

<g transform="translate(0.000000,512.000000) scale(0.100000,-0.100000)"
fill="#ffffff" stroke="none">
<path d="M806 5099 l-26 -20 0 -1635 0 -1634 -355 0 c-373 0 -403 -3 -419 -45
-3 -9 -6 -399 -6 -866 l0 -850 25 -24 24 -25 1193 0 c1307 1 1220 -4 1238 61
14 48 13 4122 0 4171 -6 21 -19 42 -30 48 -12 6 -155 10 -379 10 l-361 0 0
380 c0 400 -3 427 -45 444 -9 3 -200 6 -424 6 -398 0 -409 -1 -435 -21z m754
-2539 l0 -2410 -315 0 -315 0 0 2410 0 2410 315 0 315 0 0 -2410z m770 -415
l0 -1995 -310 0 -310 0 0 1995 0 1995 310 0 310 0 0 -1995z m-1550 -1240 l0
-755 -315 0 -315 0 0 755 0 755 315 0 315 0 0 -755z"/>
<path d="M3439 4271 l-24 -19 -3 -811 -2 -811 -369 0 c-361 0 -368 0 -387 -21
-18 -20 -19 -58 -22 -1253 -2 -677 0 -1250 3 -1274 4 -24 15 -51 28 -62 20
-20 39 -20 1214 -20 l1194 0 24 25 25 24 0 850 c0 467 -3 857 -6 866 -17 42
-43 45 -458 45 -268 0 -403 -4 -419 -11 -14 -6 -30 -22 -36 -36 -8 -17 -11
-257 -11 -818 l0 -795 -315 0 -315 0 0 1995 0 1995 315 0 315 0 0 -1064 c0
-1061 0 -1063 21 -1090 27 -34 79 -36 109 -4 20 22 20 28 20 1143 l0 1122 -23
21 c-23 22 -26 22 -439 22 -394 0 -417 -1 -439 -19z m-29 -2956 l0 -1165 -310
0 -310 0 0 1165 0 1165 310 0 310 0 0 -1165z m1560 -410 l0 -755 -315 0 -315
0 0 755 0 755 315 0 315 0 0 -755z"/>
</g>
</svg>
