<?xml version="1.0" standalone="no"?>
<!DOCTYPE svg PUBLIC "-//W3C//DTD SVG 20010904//EN"
 "http://www.w3.org/TR/2001/REC-SVG-20010904/DTD/svg10.dtd">
<svg version="1.0" xmlns="http://www.w3.org/2000/svg"
 width="512.000000pt" height="512.000000pt" viewBox="0 0 512.000000 512.000000"
 preserveAspectRatio="xMidYMid meet">

<g transform="translate(0.000000,512.000000) scale(0.100000,-0.100000)"
fill="#ffffff" stroke="none">
<path d="M2350 4953 c-125 -12 -283 -39 -396 -68 -839 -215 -1505 -880 -1719
-1719 -141 -551 -81 -1133 169 -1641 357 -726 1036 -1213 1841 -1320 160 -21
443 -21 610 0 952 122 1750 822 1999 1754 97 362 105 773 21 1141 -247 1093
-1231 1871 -2349 1858 -78 0 -157 -3 -176 -5z m457 -328 c925 -119 1646 -829
1789 -1760 23 -149 22 -441 -1 -590 -105 -684 -525 -1258 -1140 -1560 -774
-379 -1694 -239 -2327 355 -348 325 -572 768 -633 1250 -21 163 -16 441 10
590 162 912 871 1596 1780 1715 139 18 381 18 522 0z"/>
<path d="M2495 3995 c-47 -17 -93 -66 -100 -110 -3 -16 -5 -332 -3 -702 3
-665 3 -672 24 -700 12 -15 36 -37 55 -48 33 -19 52 -20 474 -20 422 0 441 1
474 20 49 29 73 67 79 123 6 63 -24 120 -78 151 -36 20 -50 21 -374 21 l-336
0 0 563 c0 336 -4 576 -10 596 -24 85 -122 136 -205 106z"/>
</g>
</svg>
