<svg xmlns="http://www.w3.org/2000/svg" viewBox="0 0 1505 1000"><title>Meta</title><path d="M432.41 0c-.484 0-.966.002-1.449.004l-1.979 163.453c.453-.005.905-.009 1.358-.009h.002c107.586 0 191.035 84.827 372.414 390.344l11.057 18.599.723 1.217L916.07 421.266l-.703-1.177c-23.895-38.863-46.851-74.619-68.866-107.269-25.533-37.83-49.95-71.626-73.647-101.799C652.866 58.246 552.494 0 432.41 0Z" fill="url(#a)"/><path d="M430.961.004c-120.668.621-227.347 78.65-304.378 198.049l-.677 1.05 141.4 76.962.691-1.042c44.982-67.727 100.96-110.924 160.985-111.567.453-.005.905-.009 1.359-.009L432.41 0c-.484 0-.966.002-1.449.004Z" fill="url(#b)"/><path d="m126.583 198.053-.677 1.05c-50.618 78.796-88.352 175.488-108.745 279.8l-.264 1.356 158.857 37.482.25-1.359c16.98-91.673 49.308-176.697 91.301-240.317l.691-1.042-141.413-76.97Z" fill="url(#c)"/><path d="M176.004 516.383 17.161 478.904l-.264 1.356A924.729 924.729 0 0 0 0 655.771l162.914 14.575c-.013-.475-.026-.943-.037-1.419-.08-3.389-.121-6.824-.122-10.305a784.506 784.506 0 0 1 12.999-140.88l.25-1.359Z" fill="url(#d)"/><path d="M167.87 721.174a340.208 340.208 0 0 1-4.955-50.829c-.013-.474-.027-.942-.038-1.418L.001 654.354V655.863c0 36.367 3.032 70.419 8.926 101.875l.256 1.356 158.933-36.56c-.084-.451-.165-.906-.246-1.36Z" fill="url(#e)"/><path d="M204.986 805.494c-17.728-19.35-30.274-47.262-36.87-82.959-.084-.452-.165-.907-.246-1.361L8.927 757.739l.255 1.355c12.014 63.075 35.575 115.642 69.315 155.411l.903 1.059 126.533-109.051c-.317-.337-.634-.678-.947-1.019Z" fill="url(#f)"/><path d="M675.866 353.361c-95.779 146.91-153.801 239.054-153.801 239.054C394.479 792.414 350.341 837.24 279.306 837.24c-29.64 0-54.403-10.553-73.374-30.727-.316-.337-.633-.677-.946-1.019l-126.49 109.01c.3.354.602.707.904 1.06C125.988 969.869 191.748 1000 273.1 1000c123.08 0 211.6-58.026 368.964-333.103 0 0 65.6-115.842 110.728-195.64-27.954-45.133-53.393-84.206-76.926-117.896Z" fill="#0082FB"/><path d="m846.582 121.48-.975 1.037c-25.151 26.798-49.29 56.724-72.773 88.475 23.697 30.173 48.16 64.034 73.693 101.865 30.093-46.448 58.183-84.066 85.715-112.898l.973-1.014-86.633-77.465Z" fill="url(#g)"/><path d="M1311.58 107.079C1244.78 39.598 1165.14.002 1079.99.002c-89.774 0-165.293 49.2-233.408 121.478l-.975 1.037 86.635 77.442.973-1.014c44.872-46.674 88.295-69.977 136.435-69.977 51.81 0 100.32 24.39 142.33 67.15.33.335.66.668.98 1.005l99.61-89.039c-.33-.337-.66-.669-.99-1.005Z" fill="#0082FB"/><path d="M1504.68 632.844c-3.74-216.67-79.56-410.371-192.11-524.76-.33-.337-.66-.67-.99-1.005l-99.6 89.039c.33.335.65.667.98 1.004 84.67 86.969 142.74 248.733 148.02 435.675.02.47.03.941.04 1.412l143.68.046c-.01-.47-.01-.94-.02-1.411Z" fill="url(#h)"/><path d="M1504.7 634.255c0-.47-.01-.941-.02-1.411l-143.7-.047c.02.471.03.941.04 1.412.24 8.774.35 17.601.35 26.481 0 50.97-7.61 92.172-23.09 121.918-.23.441-.47.884-.7 1.32l107.14 111.424c.26-.404.52-.807.79-1.213 38.89-60.014 59.31-143.384 59.31-244.483 0-5.146-.04-10.28-.12-15.401Z" fill="url(#i)"/><path d="M1338.28 782.608c-.23.441-.47.884-.7 1.32-13.4 25.073-32.52 41.797-57.52 49.11l48.84 153.921a218.976 218.976 0 0 0 24.33-9.912c1.04-.497 2.07-1.001 3.1-1.512 32.3-16.097 59.59-39.836 81.66-70.423a258.186 258.186 0 0 0 6.73-9.76c.26-.404.52-.807.79-1.213l-107.23-111.531Z" fill="url(#j)"/><path d="M1248.96 837.24c-16.38 0-30.83-2.438-44.96-8.757l-50.01 157.585c28.1 9.603 58.09 13.93 91.52 13.93 30.81 0 59.09-4.613 84.73-13.497l-48.83-153.87a109.595 109.595 0 0 1-32.45 4.609Z" fill="url(#k)"/><path d="M1148.89 783.344c-.3-.356-.61-.713-.92-1.074L1032.9 901.944l.96 1.03c39.99 42.609 78.17 69.041 121.47 83.547l49.96-157.469c-18.24-7.837-35.89-22.043-56.4-45.708Z" fill="url(#l)"/><path d="M1147.97 782.27c-34.52-40.139-77.21-106.967-144.38-215.034l-87.52-145.971-.703-1.176L813.813 572.39l.723 1.217 62.016 104.326c60.114 100.595 109.087 173.369 156.348 224.01.32.344.64.688.97 1.03l115.02-119.63c-.3-.355-.61-.713-.92-1.073Z" fill="url(#m)"/><defs><linearGradient id="a" x1="848.581" y1="511.655" x2="511.486" y2="69.944" gradientUnits="userSpaceOnUse"><stop offset=".001" stop-color="#0867DF"/><stop offset=".454" stop-color="#0668E1"/><stop offset=".859" stop-color="#0064E0"/></linearGradient><linearGradient id="b" x1="192.325" y1="225.518" x2="423.424" y2="50.069" gradientUnits="userSpaceOnUse"><stop offset=".132" stop-color="#0064DF"/><stop offset=".999" stop-color="#0064E0"/></linearGradient><linearGradient id="c" x1="94.371" y1="482.983" x2="187.073" y2="249.622" gradientUnits="userSpaceOnUse"><stop offset=".015" stop-color="#0072EC"/><stop offset=".688" stop-color="#0064DF"/></linearGradient><linearGradient id="d" x1="81.782" y1="651.565" x2="92.508" y2="509.046" gradientUnits="userSpaceOnUse"><stop offset=".073" stop-color="#007CF6"/><stop offset=".994" stop-color="#0072EC"/></linearGradient><linearGradient id="e" x1="87.681" y1="728.98" x2="80.008" y2="671.88" gradientUnits="userSpaceOnUse"><stop offset=".073" stop-color="#007FF9"/><stop offset="1" stop-color="#007CF6"/></linearGradient><linearGradient id="f" x1="83.177" y1="743.979" x2="130.993" y2="845.398" gradientUnits="userSpaceOnUse"><stop offset=".073" stop-color="#007FF9"/><stop offset="1" stop-color="#0082FB"/></linearGradient><linearGradient id="g" x1="818.108" y1="253.26" x2="881.323" y2="165.83" gradientUnits="userSpaceOnUse"><stop offset=".28" stop-color="#007FF8"/><stop offset=".914" stop-color="#0082FB"/></linearGradient><linearGradient id="h" x1="1298.74" y1="139.947" x2="1430.98" y2="626.423" gradientUnits="userSpaceOnUse"><stop stop-color="#0082FB"/><stop offset="1" stop-color="#0081FA"/></linearGradient><linearGradient id="i" x1="1462.91" y1="645.034" x2="1379.22" y2="814.163" gradientUnits="userSpaceOnUse"><stop offset=".062" stop-color="#0081FA"/><stop offset="1" stop-color="#0080F9"/></linearGradient><linearGradient id="j" x1="1312.7" y1="903.829" x2="1390.93" y2="850.543" gradientUnits="userSpaceOnUse"><stop stop-color="#027AF3"/><stop offset="1" stop-color="#0080F9"/></linearGradient><linearGradient id="k" x1="1190" y1="914.24" x2="1298.71" y2="914.24" gradientUnits="userSpaceOnUse"><stop stop-color="#0377EF"/><stop offset=".999" stop-color="#0279F1"/></linearGradient><linearGradient id="l" x1="1095.48" y1="854.367" x2="1173.64" y2="900.35" gradientUnits="userSpaceOnUse"><stop offset=".002" stop-color="#0471E9"/><stop offset="1" stop-color="#0377EF"/></linearGradient><linearGradient id="m" x1="857.065" y1="515.306" x2="1107.43" y2="830.098" gradientUnits="userSpaceOnUse"><stop offset=".277" stop-color="#0867DF"/><stop offset="1" stop-color="#0471E9"/></linearGradient></defs></svg>
